<?xml version="1.0" encoding="utf-8"?>
<!-- Generator: Adobe Illustrator 25.0.1, SVG Export Plug-In . SVG Version: 6.00 Build 0)  -->
<svg version="1.1" id="Capa_1" xmlns="http://www.w3.org/2000/svg" xmlns:xlink="http://www.w3.org/1999/xlink" x="0px" y="0px"
	 viewBox="0 0 512 512" style="enable-background:new 0 0 512 512;" xml:space="preserve">
<style type="text/css">
	.st0{fill:#fff;}
</style>
<g>
	<path class="st0" d="M244.9,512c-9.4-1.9-19-3.3-28.2-5.9c-53.8-15.1-94.1-64.3-98.7-119.9c-0.5-5.8-0.7-11.6-0.7-17.4
		c-0.1-55.4-0.2-110.8,0-166.2c0.1-43.3,28.8-80.9,70.4-92.2c7.9-2.2,16.4-3.4,24.6-3.5c29.1-0.4,58.2-0.3,87.3-0.1
		c51.5,0.3,94.4,42.3,94.9,93.8c0.5,58.7,0.7,117.5-0.1,176.2c-0.9,69.1-54.9,127.2-123.7,134.4c-1.3,0.1-2.6,0.6-3.8,0.9
		C259.5,512,252.2,512,244.9,512z M372.8,289.5c0.1,0,0.3,0,0.4,0c0-27.8,0-55.6,0-83.3c0-5.1-0.1-10.4-1-15.4
		c-6.7-37.3-36.6-62.4-74.6-62.7c-27.8-0.2-55.6-0.1-83.3,0c-4.5,0-9,0.3-13.4,1.1c-37.4,6.9-62.1,36.9-62.2,75.5
		c-0.1,55.6-0.1,111.1,0.1,166.7c0,7.8,0.5,15.7,2,23.3c12.4,63.4,69.8,103.8,133.9,94.5c52.7-7.7,95.9-54.2,98.1-107.3
		C373.8,351.1,372.8,320.3,372.8,289.5z"/>
	<path class="st0" d="M288,203c0,7.1,0.1,14.3,0,21.4c-0.3,17.6-14.6,31.6-32,31.6s-31.7-14.1-31.9-31.7c-0.2-14.5-0.2-28.9,0-43.4
		c0.2-17.7,14.4-31.5,31.9-31.5c17.6,0,31.6,13.8,31.9,31.5C288.1,188.3,288,195.7,288,203z M266.8,202.5c0-6.6,0.1-13.3,0-19.9
		c-0.2-7.2-4.6-11.9-10.8-11.9s-10.6,4.8-10.7,12c-0.1,13.3-0.1,26.6,0,39.9c0.1,7.3,4.2,11.9,10.5,12c6.5,0.1,10.8-4.5,10.9-12.1
		C266.9,215.8,266.8,209.2,266.8,202.5z"/>
	<g>
		<path class="st0" d="M339.6,37.5c-1.4,0-2.7-0.2-4.1-0.8c-80.9-31.1-158.2-0.4-159-0.1c-5.8,2.4-12.4-0.4-14.7-6.2
			c-2.4-5.8,0.4-12.4,6.2-14.7c3.5-1.4,86.2-34.5,175.7-0.1c5.8,2.2,8.7,8.8,6.5,14.6C348.5,34.7,344.2,37.5,339.6,37.5z"/>
	</g>
	<g>
		<path class="st0" d="M316.1,75c-1.4,0-2.7-0.2-4.1-0.8c-56.9-21.9-111.4-0.3-111.9-0.1c-5.8,2.3-12.4-0.4-14.7-6.2
			c-2.4-5.8,0.4-12.4,6.2-14.7c2.5-1,63.1-25.3,128.6-0.1c5.8,2.2,8.7,8.8,6.5,14.6C325,72.2,320.7,75,316.1,75z"/>
	</g>
</g>
</svg>
