<?xml version="1.0" encoding="utf-8"?>
<!-- Generator: Adobe Illustrator 25.0.1, SVG Export Plug-In . SVG Version: 6.00 Build 0)  -->
<svg version="1.1" id="Capa_1" xmlns="http://www.w3.org/2000/svg" xmlns:xlink="http://www.w3.org/1999/xlink" x="0px" y="0px"
	 viewBox="0 0 1329.6 1417.3" style="enable-background:new 0 0 1329.6 1417.3;" xml:space="preserve">
<style type="text/css">
	.st0{fill:#FFFFFF;}
</style>
<g>
	<path class="st0" d="M1307.2,1027.7c-16.9-2.8-35.6,10.4-45.7,18.9c-6.4,5.4-12.8,10.6-19.4,15.7
		c-74.9,57.3-150.3,113.3-244.6,136.2c-56.8,13.8-113.5,28.2-172.4,26.7c-17.4-0.4-35.5-4-51.8-10.1c-38.2-14.3-45.7-45.7-17.6-74.8
		c21.8-22.5,46.7-41.9,70-63c35.2-32,57.3-69.7,48.6-119.5c-2.6-14.9-8.3-30-24.2-34c-16-4-23.9,9.6-31.6,21.3
		c-22.1,33.5-49.4,61-84.7,81.4c-45.2,26.1-89.8,53.3-132.8,82.8c-49.1,33.7-77.2,66.7-91.7,87.3c-8.5,12.1-24.5,16-37.7,9.3
		c-128.1-64.6-231-179.2-277.7-315.3c-1.7-4.7-3.6-9.3-5-14.1l-4-14.4c-2.5-9.7-5.8-19.1-7.8-28.9c-3.8-19.6-8.4-39.1-10-59.1
		c-3.2-19.8-3.1-39.9-4.2-59.9c0.1-20,1.6-40.1,2-60.1c7-79.9,32.2-157.9,72.5-227.6c40.2-69.6,95.7-130.8,161.4-177.8
		c65.5-47.6,142.2-78.9,221.9-93.7c20.1-2.9,39.9-7.6,60.4-7.7c20.3-1.2,40.6-2.9,61-2.1c40.7,1.3,81.2,6.9,120.8,16.6
		c79.2,19.5,154,56.8,218.2,108.1l85.8-104c-77.6-65.3-169.5-114.1-268-141.1C849.5,11.5,798.8,3.1,747.8,0.7
		c-25.5-1.5-51-0.1-76.5,1c-25.6,0.1-50.8,5-76.2,8.4C494.3,26.9,396.3,65.2,311.9,123.9c-84.6,58.2-156.6,134.6-209.7,222.9
		C49.1,435.1,14.8,535.2,4,638.1c-1.4,25.8-3.6,51.6-4,77.4c1,25.8,1.1,51.7,4.8,77.3c2.2,25.8,7.6,51.2,12.5,76.6
		c2.5,12.7,6.5,25.1,9.8,37.6l5.2,18.7c1.9,6.2,4.2,12.2,6.3,18.4c33.2,98.3,88.7,188.6,160,263.8c35.6,37.8,75.9,70.7,118.7,100
		c40.7,27.1,84.2,49.9,129.3,68.8c2.7,1.4,5.4,2.6,8.3,3.6c64.1,22.4,131.4,33.4,201.4,36.3c76.1,3.2,150.8-5.6,224.2-26.8
		c89.5-25.9,170.8-67.4,242.5-126.3c40-32.8,77.8-68.3,114.6-104.6c29.1-28.8,55.8-60.2,82-91.8
		C1336.4,1047.2,1331.9,1031.8,1307.2,1027.7z"/>
	<g>
		<path class="st0" d="M998.5,1102.8c2.6-5.8,5.2-16.5-0.2-21c-8.3-7-24-1.5-33.4,7.4c-28.9,25.5-55.3,73.4-71.7,107.9
			c21-3.1,41.7-7.3,62.5-12.1C965.9,1167.9,990,1121.5,998.5,1102.8z"/>
	</g>
	<g>
		<path class="st0" d="M1083.8,1029.8c-11.1,3.7-19.8,14.1-26.1,23.1c-25.6,35.9-60.7,89.8-85.9,128.3c8.6-2.1,17.2-4.1,25.8-6.2
			c19.6-4.7,38.2-11.2,56.3-18.5c10.3-18,39.7-76.3,52-103C1111.6,1040.6,1099.5,1025.5,1083.8,1029.8z"/>
	</g>
	<g>
		<path class="st0" d="M1081.4,1144.2c35.9-17.3,69.6-38.5,102.1-61.8c15.5-21.3,27-47.2,34.5-67.6c1.8-5,2.1-11.5-1.9-15.9
			c-4.8-5.3-12.2-4.9-17.5-4.1c-15.8,2.4-27.4,13.4-35.4,24.4C1138.6,1052.9,1106.2,1106.2,1081.4,1144.2z"/>
	</g>
</g>
</svg>
