<?xml version="1.0" encoding="utf-8"?>
<!-- Generator: Adobe Illustrator 25.0.1, SVG Export Plug-In . SVG Version: 6.00 Build 0)  -->
<svg version="1.1" id="Capa_1" xmlns="http://www.w3.org/2000/svg" xmlns:xlink="http://www.w3.org/1999/xlink" x="0px" y="0px"
	 viewBox="0 0 2320.2 405.1" style="enable-background:new 0 0 2320.2 405.1;" xml:space="preserve">
<style type="text/css">
	.st0{fill:#FFFFFF;}
</style>
<g>
	<g>
		<path class="st0" d="M313.4,187.1c0,0,1,15.4,19.5,13.2c0,0-9.8,6.4-16.1,2.6S313.4,187.1,313.4,187.1z"/>
		<path class="st0" d="M270.9,196.7c0,0,0.7,10.5,11.7,9.2c0,0-5.8,4.3-9.5,1.7C269.4,205,270.9,196.7,270.9,196.7z"/>
		<path class="st0" d="M265.8,155.4c0,0,3.3,15.5,21.9,10.6c0,0-9.1,8-16,5.1C264.7,168.2,265.8,155.4,265.8,155.4z"/>
		<path class="st0" d="M329.2,133.3c-3.2,0.6-6.1,1.5-8.6,2.9c-2.5,1.4-4.3,3.3-5.4,5.7l0.1-0.2c-0.4,1.4-0.8,2.9-0.5,4.1
			c0.1,1.2,0.8,2.2,1.9,2.9c1.1,0.7,2.7,1,4.2,0.8c1.5-0.2,3.1-0.8,3.9-2.4c0.2,1.9-1.5,3.6-3.3,4.3c-1.8,0.8-4,0.9-6,0.1
			c-2.1-0.7-3.8-2.8-4.3-5c-0.6-2.2,0-4.2,0.4-6.1l0-0.1l0.1-0.1c0.8-1.6,1.8-3.2,3.2-4.4c1.4-1.1,3-2.1,4.6-2.6
			C322.6,132.2,326.1,132.2,329.2,133.3z"/>
	</g>
	<path class="st0" d="M460.2,215.4c-14.3-12-33.3-18-57.1-18c-30.1,0-55.1,7.7-75,23.1c-19.9,15.4-32.5,36.3-37.9,62.8
		c-1.6,8.3-2.4,14.9-2.4,19.9c0,0.2,0,0.4,0,0.6c0.4,0.3,0.9,0.6,1.3,0.9c0.8,0.6,1.4,1.4,1.8,2.2c2.3-3.4,4.5-6.6,6.5-9.4
		c2.3-3.3,5.6-7.2,10.6-8.8c5.2-1.5,9.9,0.6,12.6,4.6c0.6,0.9,1,1.8,1.3,2.8c2.2-3.3,4.1-6,5.8-8.3c2-2.8,4.3-5,6.8-6.5
		c3.5-15.4,10.6-27.7,21.3-36.6c11.1-9.3,24.5-14,40.3-14c27.8,0,41.8,11.8,41.8,35.4c0,5.4-0.7,11.1-2,17.2
		c-3.4,15.5-10.7,28.1-22.1,37.9c-11.3,9.8-24.8,14.7-40.3,14.7c-5.4,0-10.2-0.5-14.5-1.4c-0.3,0.3-0.6,0.7-1,1
		c-10.9,10.8-20.3,19.5-29.4,27.2c10.9,4.4,23.5,6.6,37.9,6.6c30.1,0,55-7.6,74.8-22.7c19.8-15.2,32.6-36.2,38.4-63.2
		c1.3-6.7,2-13,2-18.9C481.6,243.8,474.5,227.4,460.2,215.4z"/>
	<path class="st0" d="M530.5,202.4h41.1l-5.7,25.9c8.3-8.8,19-15.3,32-19.5c13-4.3,27.3-6.4,42.8-6.4l-7.1,32.3
		c-16.4,0-31.2,2.5-44.3,7.6c-13.1,5.1-23.2,13-30.2,23.8l-20.6,98h-42.5L530.5,202.4z"/>
	<path class="st0" d="M659.3,361.3c-10.4-5.3-18.6-12.9-24.6-22.7c-6-9.9-8.9-21.5-8.9-34.7c0-7,0.8-13.7,2.4-20.2
		c3.6-16.8,10.3-31.8,20.2-45c9.9-13.1,22-23.3,36.4-30.5c14.4-7.2,30.1-10.8,47.2-10.8c26.3,0,45.7,7,58.3,20.9l3.4-15.8H836
		l-34.4,161.7h-41.1l3.7-18.9c-8.8,8.3-18.8,14.4-30,18.2c-11.2,3.8-24.3,5.7-39.1,5.7C681.7,369.2,669.8,366.6,659.3,361.3z
		 M747.1,326.1c10.8-6.5,19.3-15.3,25.6-26.3l7.1-32.7c-1.1-11.2-5.5-20.1-13.1-26.6c-7.6-6.5-18.1-9.8-31.3-9.8
		c-16,0-29.8,4.9-41.6,14.7c-11.8,9.8-19.3,22.5-22.4,38.2c-1.1,6.3-1.7,11.5-1.7,15.5c0,24.5,14.4,36.7,43.1,36.7
		C724.9,335.9,736.3,332.6,747.1,326.1z"/>
	<path class="st0" d="M893.3,115.2h42.5l-52.9,249h-42.5L893.3,115.2z"/>
	<path class="st0" d="M960,202.4h43.1l-34.4,161.7h-43.1L960,202.4z M973.2,168.9c-3.6-3.5-5.4-7.9-5.4-13.3c0-7.9,3-14.7,9.1-20.4
		c6.1-5.7,12.9-8.6,20.6-8.6c5.8,0,10.6,1.7,14.3,5.2c3.7,3.5,5.6,7.9,5.6,13.3c0,7.9-3,14.7-9.1,20.4c-6.1,5.7-13,8.6-20.9,8.6
		C981.5,174.1,976.8,172.4,973.2,168.9z"/>
	<path class="st0" d="M1053.2,361.3c-10.4-5.3-18.6-12.9-24.6-22.7c-6-9.9-8.9-21.5-8.9-34.7c0-7,0.8-13.7,2.4-20.2
		c3.6-16.8,10.3-31.8,20.2-45c9.9-13.1,22-23.3,36.4-30.5c14.4-7.2,30.1-10.8,47.2-10.8c26.3,0,45.7,7,58.3,20.9l3.4-15.8h42.5
		l-34.4,161.7h-41.1l3.7-18.9c-8.8,8.3-18.8,14.4-30,18.2c-11.2,3.8-24.3,5.7-39.1,5.7C1075.6,369.2,1063.6,366.6,1053.2,361.3z
		 M1141,326.1c10.8-6.5,19.3-15.3,25.6-26.3l7.1-32.7c-1.1-11.2-5.5-20.1-13.1-26.6c-7.6-6.5-18.1-9.8-31.3-9.8
		c-16,0-29.8,4.9-41.6,14.7c-11.8,9.8-19.3,22.5-22.4,38.2c-1.1,6.3-1.7,11.5-1.7,15.5c0,24.5,14.4,36.7,43.1,36.7
		C1118.7,335.9,1130.2,332.6,1141,326.1z"/>
	<g>
		<path class="st0" d="M1819,202.4h41.1l-5.7,25.9c8.3-8.8,19-15.3,32-19.5c13-4.3,27.3-6.4,42.8-6.4l-7.1,32.3
			c-16.4,0-31.2,2.5-44.3,7.6c-13.1,5.1-23.2,13-30.2,23.8l-20.6,98h-42.5L1819,202.4z"/>
		<path class="st0" d="M1332.8,128.7h40.1l42.1,172.5l115.6-172.5h43.5l-49.9,235.5h-40.4l32.3-153l-102.4,153h-20.2l-37.7-153
			l-32.3,153h-40.4L1332.8,128.7z"/>
		<path class="st0" d="M1605.9,361.3c-10.5-5.3-18.7-12.9-24.6-22.7c-6-9.9-8.9-21.5-8.9-34.7c0-7,0.8-13.7,2.4-20.2
			c3.6-16.8,10.3-31.8,20.2-45c9.9-13.1,22-23.3,36.4-30.5c14.4-7.2,30.1-10.8,47.2-10.8c26.3,0,45.7,7,58.3,20.9l3.4-15.8h42.5
			l-34.4,161.7h-41.1l3.7-18.9c-8.8,8.3-18.8,14.4-30,18.2c-11.2,3.8-24.3,5.7-39.1,5.7C1628.3,369.2,1616.3,366.6,1605.9,361.3z
			 M1693.6,326.1c10.8-6.5,19.3-15.3,25.6-26.3l7.1-32.7c-1.1-11.2-5.5-20.1-13.1-26.6c-7.6-6.5-18.1-9.8-31.3-9.8
			c-16,0-29.8,4.9-41.6,14.7c-11.8,9.8-19.3,22.5-22.4,38.2c-1.1,6.3-1.7,11.5-1.7,15.5c0,24.5,14.4,36.7,43.1,36.7
			C1671.4,335.9,1682.8,332.6,1693.6,326.1z"/>
		<path class="st0" d="M2081,202.4h43.1l-34.4,161.7h-43.1L2081,202.4z M2115.3,125.3h44.8l-41.4,58.6h-39.1L2115.3,125.3z"/>
		<path class="st0" d="M2164.5,202.4h41.1l-4.7,21.9c9.4-8.5,20-15.2,31.8-19.9c11.8-4.7,23.3-7.1,34.5-7.1
			c17.3,0,30.4,4.5,39.4,13.6c9,9.1,13.5,20.8,13.5,35.2c0,4.5-0.6,9.8-1.7,15.8l-21.6,102.1h-42.5l20.6-98
			c1.1-5.6,1.7-10.1,1.7-13.5c0-7.4-2.1-12.9-6.4-16.5c-4.3-3.6-11.1-5.4-20.6-5.4c-9.7,0-19.3,2.3-28.8,6.9
			c-9.5,4.6-18.3,11.5-26.1,20.7l-22.2,105.8h-42.5L2164.5,202.4z"/>
		<path class="st0" d="M1944.5,358.8c-7.6-7-11.5-16.8-11.5-29.6c0-4.9,0.7-10.4,2-16.5l41.9-184.4h42.5l-18.3,74.2h38.7l-7.1,32.3
			H1994l-15.5,72.4c-1.1,6.1-1.7,10.4-1.7,13.1c0,5.6,1.6,9.6,4.7,12c3.1,2.4,8.5,3.5,16.2,3.5c7.9,0,15.5-1.6,22.9-4.7l-6.7,32.3
			c-10.3,3.8-22.6,5.7-36.7,5.7S1952.2,365.7,1944.5,358.8z"/>
	</g>
	<g>
		<path class="st0" d="M373.7,293.8c-4.8-0.8-10.2,3-13.1,5.4c-1.8,1.5-3.7,3-5.6,4.5c-21.4,16.4-43,32.4-69.9,38.9
			c-16.2,3.9-32.4,8.1-49.3,7.6c-5-0.1-10.2-1.1-14.8-2.9c-10.9-4.1-13.1-13.1-5-21.4c6.2-6.4,13.4-12,20-18
			c10.1-9.2,16.4-19.9,13.9-34.2c-0.7-4.3-2.4-8.6-6.9-9.7c-4.6-1.1-6.8,2.7-9,6.1c-6.3,9.6-14.1,17.4-24.2,23.3
			c-12.9,7.5-25.7,15.2-38,23.7c-14,9.6-22.1,19.1-26.2,24.9c-2.4,3.5-7,4.6-10.8,2.7c-36.6-18.5-66-51.2-79.4-90.1
			c-0.5-1.3-1-2.7-1.4-4l-1.1-4.1c-0.7-2.8-1.7-5.5-2.2-8.3c-1.1-5.6-2.4-11.2-2.9-16.9c-0.9-5.7-0.9-11.4-1.2-17.1
			c0-5.7,0.4-11.4,0.6-17.2c2-22.8,9.2-45.1,20.7-65C79.3,102,95.2,84.5,114,71.1c18.7-13.6,40.7-22.6,63.4-26.8
			c5.7-0.8,11.4-2.2,17.3-2.2c5.8-0.4,11.6-0.8,17.4-0.6c11.6,0.4,23.2,2,34.5,4.7c22.6,5.6,44,16.2,62.4,30.9l24.5-29.7
			c-22.2-18.7-48.5-32.6-76.6-40.3c-14.1-3.8-28.6-6.2-43.1-6.9c-7.3-0.4-14.6,0-21.9,0.3c-7.3,0-14.5,1.4-21.8,2.4
			c-28.8,4.8-56.9,15.8-81,32.5C65,52.1,44.4,73.9,29.2,99.1C14,124.4,4.2,153,1.1,182.4c-0.4,7.4-1,14.7-1.1,22.1
			c0.3,7.4,0.3,14.8,1.4,22.1C2,234,3.5,241.3,5,248.5c0.7,3.6,1.9,7.2,2.8,10.8l1.5,5.4c0.5,1.8,1.2,3.5,1.8,5.3
			c9.5,28.1,25.4,53.9,45.7,75.4c10.2,10.8,21.7,20.2,33.9,28.6c11.6,7.7,24.1,14.3,37,19.7c0.8,0.4,1.6,0.7,2.4,1
			c18.3,6.4,37.6,9.5,57.6,10.4c21.8,0.9,43.1-1.6,64.1-7.7c25.6-7.4,48.8-19.3,69.3-36.1c11.4-9.4,22.3-19.5,32.8-29.9
			c8.3-8.2,15.9-17.2,23.4-26.2C382,299.3,380.7,294.9,373.7,293.8z"/>
		<g>
			<path class="st0" d="M285.4,315.2c0.7-1.7,1.5-4.7-0.1-6c-2.4-2-6.9-0.4-9.5,2.1c-8.3,7.3-15.8,21-20.5,30.8
				c6-0.9,11.9-2.1,17.9-3.5C276.1,333.8,283,320.6,285.4,315.2z"/>
		</g>
		<g>
			<path class="st0" d="M309.8,294.4c-3.2,1-5.7,4-7.5,6.6c-7.3,10.3-17.3,25.7-24.6,36.7c2.5-0.6,4.9-1.2,7.4-1.8
				c5.6-1.4,10.9-3.2,16.1-5.3c2.9-5.2,11.4-21.8,14.9-29.4C317.7,297.5,314.3,293.1,309.8,294.4z"/>
		</g>
		<g>
			<path class="st0" d="M309.1,327.1c10.3-4.9,19.9-11,29.2-17.7c4.4-6.1,7.7-13.5,9.9-19.3c0.5-1.4,0.6-3.3-0.5-4.5
				c-1.4-1.5-3.5-1.4-5-1.2c-4.5,0.7-7.8,3.8-10.1,7C325.5,301,316.2,316.2,309.1,327.1z"/>
		</g>
	</g>
	<path class="st0" d="M101.2,271.5c1.8-2.1,3.8-4,5.7-6.2c2-2,4.1-3.9,6.1-6c-2.6,1.1-5.2,2.4-7.8,3.7c-2.5,1.5-5,3-7.4,4.7
		c-2.3,1.8-4.8,3.4-6.9,5.6c-1.1,1-2.2,2-3.2,3.1l-3,3.4c-2.1,2.6-4,5.4-5.7,8.4c2.3,3.4,4.8,6.7,7.4,9.9c1.3-4.6,3.2-9,5.5-13.4
		C94.4,280.2,97.7,275.8,101.2,271.5z"/>
	<path class="st0" d="M381.5,136.6c-22.7-29.1-64.2-35.2-89.8-24.2c-20.9,9-31.2,29.8-34.4,37.6c-34.4,8.6-43.9,32-46.5,45.7
		c-16.6-4.6-29.6,4.2-34.4,10l-17.8,19.9c-1.9-2.7-4.2-5.1-6.9-7.3c-4.9-4-11.2-6.4-17.4-7.2c-6.2-0.8-12.6,0-18.4,1.9
		c-5.8,2-11.1,5-15.6,8.8c-2.1,1.7-3.9,3.4-5.8,5.3c-0.3-0.5-0.5-1-0.8-1.5c-2-3.4-4.4-6.8-7.9-9.6c-3.4-2.8-8.1-4.8-12.8-5
		c-4.8-0.1-8.9,1.1-12.9,3.2c-2.6,1.4-4.9,3.4-6.8,5.6c0,0.1,0,0.3,0,0.4l0.1,0.4c0.4,4.2,1.2,8.3,2.1,12.7l0.7,3.5
		c0.1,0.4,0.2,0.9,0.3,1.3c0.1-0.3,0.1-0.7,0.2-1c1.6-5.8,4.5-10.8,8.8-13.1c2.1-1.2,4.8-1.9,7-1.8c2.2,0.1,4.2,0.9,6.2,2.5
		c3.9,3.1,7,9.1,8.6,14.6c0.3,1,0.9,2,1.8,2.7c2.4,2,6,1.7,8-0.7l0.2-0.3c2.8-3.3,6.5-7,10.2-9.8c3.8-2.8,7.9-5.2,12.2-6.6
		c4.2-1.5,8.7-2.1,13.1-1.7c4.3,0.3,8.4,1.7,11.9,4.2c7.2,4.9,11.9,13.9,14.1,23.4c2.3,9.7,2.2,20.1,0.4,30.8
		c5.7-9.2,8.4-20.5,7.6-31.9c-0.3-4.5-1.2-9-2.8-13.4l20.7-23.1c0.4-0.5,10.9-12.9,27.9-4.6c4.8,2.3,8.3,6.5,10.7,12.5
		c-3.5,1.2-6.9,2.6-10.2,4.2c-9.9,4.9-19,11.3-26.2,19.4c9.9-4.5,19.5-8.5,29.3-11.8c9.7-3.3,19.7-5.5,29.5-5.3
		c9.8,0,19.1,2.9,27,7.7c3.8,2.5,7,5.7,9.6,9.4c2.3,3.4,4,7.3,5.2,11.5c1.9-5,4.3-9.7,6.9-14.2c-3.5-6.7-8.6-12.7-15.1-16.7
		c-2.5-1.7-5.3-2.8-8-4c-2.7-1.4-5.5-2-8.4-2.8c-2.8-0.9-5.8-1.1-8.7-1.4c-2.9-0.5-5.8-0.2-8.7-0.2c-3.9,0.2-7.6,0.7-11.4,1.4
		c-2.8-7.6-7.3-13.6-13-17.5c1.4-11.7,8.4-33.1,41.2-40.2l3.1-0.7l1-3c0.1-0.2,8.5-24.8,29.4-33.9c21.8-9.4,57.7-3.3,76.5,20.8
		c11,14.2,13.8,32,14.2,44.4c0.2,0,0.3,0,0.5-0.1c3.7-0.3,7.2-0.4,10.7-0.4C397.7,173.3,394.4,153.2,381.5,136.6z"/>
</g>
</svg>
