<?xml version="1.0" encoding="utf-8"?>
<!-- Generator: Adobe Illustrator 25.0.1, SVG Export Plug-In . SVG Version: 6.00 Build 0)  -->
<svg version="1.1" id="Capa_1" xmlns="http://www.w3.org/2000/svg" xmlns:xlink="http://www.w3.org/1999/xlink" x="0px" y="0px"
	 viewBox="0 0 512 512" style="enable-background:new 0 0 512 512;" xml:space="preserve">
<style type="text/css">
	.st0{fill:#FFFFFF;}
</style>
<path class="st0" d="M451.3,115l-0.3-1c21.7-13,39.2-34.4,47-59c-20.3,12.1-44.1,21.3-68,26c-19.2-20.4-44.8-33-75-33
	c-58,0-106,46.9-106,105c0,8.9,0.7,17.5,1.7,25.1c-51-4-99-20.5-142.9-49.4c-38.3-25.2-59-50.8-59.1-51.1c-5.6-7.1-15.3-9.6-23.7-6
	C16.7,75.3,11.9,84.1,13.2,93c0.5,3.1,10.2,64.3,47.1,117.7c-8.6-1.3-13.7-3.7-14.7-4.2c-7.1-4.2-15.9-3.5-22.4,1.7
	c-6.5,5.2-8.9,14.1-6.3,22c0.8,2.6,18.4,53.8,82.5,80.9c-13.7,4-25.9,3.9-26.1,3.9c-0.1,0-0.3,0-0.4,0c-8.5,0-16,5.3-18.9,13.3
	c-2.9,8.1-0.2,17.2,6.6,22.5c1.5,1.2,30.2,23,76.9,34c-16.3,9-35.6,14.4-57.6,16.1c-30.5,2.4-55.1-3.3-55.2-3.4
	c-10.1-2.5-20.5,3.2-23.8,13.2s1.6,20.7,11.3,24.7C15.2,436.7,83.8,465,152,465c47.4,0,82.8-4.3,115-14
	c40.2-12.1,74.2-32.7,104.2-62.9c7.8-7.9,7.7-20.5-0.1-28.3c-7.9-7.8-20.5-7.7-28.3,0.2C289.4,413.9,227.9,425,152,425
	c-1.8,0-3.6,0-5.3-0.1c21.2-9.7,39.3-23.6,53.8-41.3c4.8-5.9,5.9-14,2.7-21c-3.2-6.9-10-11.5-17.6-11.7c-20.9-0.6-39.3-4.6-54.5-9.6
	c11.3-5.7,22.3-13.9,30.9-25.4c4.2-5.6,5.2-12.9,2.6-19.3s-8.2-11.1-15.1-12.4c-33.6-6-55.9-19.6-70.3-32.9c8.1-0.4,17-1.7,26.7-4.1
	c7.1-1.8,12.6-7.2,14.5-14.2c1.9-7-0.2-14.5-5.4-19.6c-18.1-17.5-31.3-39.1-40.7-59.5c3.3,2.4,6.7,4.7,10.3,7.1
	c39.7,26.4,105,57.8,190.6,57.8c6.2,0,12.1-2.9,15.9-7.9c3.8-4.9,5.1-11.4,3.4-17.4c-0.1-0.2-5.3-19.9-5.3-40.8
	c0-17.2,6.9-33.5,19.4-45.8C320.9,94.8,337.5,88,355,88c17.7,0,33.1,6.9,45.8,20.4C410,117,420,140,420,153.9V166c0,0.4,0,1,0.1,1.7
	c-0.1,0.8-0.1,1.5-0.1,2.3c0,45.5-8.4,85.9-25,120.3c-4.8,9.9-0.6,21.9,9.3,26.7c2.8,1.4,5.8,2,8.7,2c7.4,0,14.6-4.2,18-11.3
	c19.2-39.8,29-86.2,29-137.7c0-0.8-0.1-1.5-0.1-2.2c0.1-0.7,0.1-1.3,0.1-1.8v-14c20.5-14.8,37.9-34.9,52-56
	C512,96,475.1,113.5,451.3,115z"/>
</svg>
